<?xml version="1.0" encoding="utf-8"?>
<!-- Generator: Adobe Illustrator 23.1.1, SVG Export Plug-In . SVG Version: 6.00 Build 0)  -->
<svg version="1.1" id="Layer_1" xmlns="http://www.w3.org/2000/svg" xmlns:xlink="http://www.w3.org/1999/xlink" x="0px" y="0px"
	 viewBox="0 0 106.1 153.2" style="enable-background:new 0 0 106.1 153.2;" xml:space="preserve">
<style type="text/css">
	.st0{fill:#81DAEF;}
	.st1{fill:#38356D;}
	.st2{fill:#419FDD;}
	.st3{fill:#3687BD;}
	.st4{fill:#4AB7FF;}
	.st5{fill:#FFCC00;}
	.st6{fill:#E9BB00;}
	.st7{fill:#FFDC51;}
	.st8{fill:#E86A17;}
	.st9{fill:#BB5512;}
	.st10{fill:#FF7419;}
	.st11{fill:#28B463;}
	.st12{fill:#2ECC71;}
	.st13{fill:#33E27D;}
	.st14{fill:#C48647;}
	.st15{fill:#BB8044;}
	.st16{fill:#AD763E;}
	.st17{fill:#A8733D;}
	.st18{fill-opacity:0.102;}
	.st19{fill:#28B162;}
	.st20{fill:#31D978;}
	.st21{fill:#B8824D;}
	.st22{fill:#2A7DB4;}
	.st23{fill:#3498DB;}
	.st24{fill:#FFE0B1;}
	.st25{fill:#25A85C;}
	.st26{fill:#E7CBA0;}
	.st27{fill:#D7BD93;}
	.st28{fill:#9F7042;}
	.st29{fill:#BFA984;}
	.st30{fill:#FFFFFF;}
	.st31{fill:#7F7058;}
	.st32{fill:#FFFFFF;fill-opacity:0.302;}
	.st33{fill:#AD7A48;}
	.st34{fill:#C68C53;}
	.st35{fill:#916B4E;}
	.st36{fill:#AA7E5C;}
	.st37{fill:#E0C1A2;}
	.st38{fill:#ECCFB1;}
	.st39{fill:#E0C79A;}
	.st40{fill:#637480;}
	.st41{fill:#7E95A3;}
	.st42{fill:#738895;}
	.st43{fill:#E7E2DA;}
	.st44{fill:#544B4B;}
	.st45{fill:#5D5454;}
	.st46{fill:#F7F7F7;}
	.st47{fill:#EEEEEE;}
	.st48{fill:#B47B41;}
	.st49{fill:none;}
	.st50{fill:none;stroke:#288C50;stroke-width:1.4842;stroke-miterlimit:10;}
	.st51{fill:#492D14;}
</style>
<g>
	<g transform="matrix( 1, 0, 0, 1, 0,0) ">
		<g>
			<g id="Layer0_12_FILL_14_">
				<path class="st14" d="M15.9,118.2L5.4,129.6l7.5,6.8l4.9-4.4l3.6,3.2l6-6.5L15.9,118.2 M76.1,131.2l12.3-3.9L84.5,115l-12.3,3.9
					L76.1,131.2z"/>
				<path class="st15" d="M70.7,147.8l17.7-15.7l17.7,15.7V66.5H0v81.3l12.8-11.4l-7.5-6.8l10.5-11.4l11.4,10.5l-6,6.5l14.1,12.5
					L53,132L70.7,147.8 M88.4,127.3l-12.3,3.9l-3.9-12.3l12.3-3.9L88.4,127.3 M51,119.7l8.8,2.2l-2.2,8.7l-8.7-2.1L51,119.7z"/>
				<path class="st16" d="M59.8,121.8l-8.8-2.2l-2.1,8.8l8.7,2.1L59.8,121.8z"/>
				<path class="st17" d="M106.1,153.1v-5.4L88.4,132l-17.7,15.7L53.2,132l-17.7,15.7l-14.2-12.5l-3.6-3.2l-4.9,4.4L0,147.8v5.4
					l17.7-13.3l17.7,13.3l17.7-13.3l17.6,13.3l17.7-13.3L106.1,153.1z"/>
			</g>
		</g>
	</g>
	<g transform="matrix( 1, 0, 0, 1, 0,0) ">
		<g>
			<g id="Layer0_12_MEMBER_0_FILL_7_">
				<path class="st18" d="M106.1,84.8v-4.5l-17.7-6l-17.7,6l-17.6-6l-17.7,6l-17.7-6L0,80.3v4.5l17.7-7.9l17.7,7.9l17.7-7.9
					l17.6,7.9l17.7-7.9L106.1,84.8z"/>
				<path class="st19" d="M106.1,80.3v-3.1l-17.7-4.8l-17.7,4.8l-17.6-4.8l-17.7,4.8l-17.7-4.8L0,77.2v3.1l17.7-6l17.7,6l17.7-6
					l17.6,6l17.7-6L106.1,80.3z"/>
				<path class="st20" d="M106.1,66.6V0H0v66.6H106.1z"/>
				<path class="st12" d="M106.1,77.2V6H0v71.2l17.7-4.8l17.7,4.8l17.7-4.8l17.6,4.8l17.7-4.8L106.1,77.2z"/>
			</g>
		</g>
	</g>
</g>
</svg>
