<?xml version="1.0" encoding="utf-8"?>
<!-- Generator: Adobe Illustrator 23.1.1, SVG Export Plug-In . SVG Version: 6.00 Build 0)  -->
<svg version="1.1" id="Layer_1" xmlns="http://www.w3.org/2000/svg" xmlns:xlink="http://www.w3.org/1999/xlink" x="0px" y="0px"
	 viewBox="0 0 106.5 106.7" style="enable-background:new 0 0 106.5 106.7;" xml:space="preserve">
<style type="text/css">
	.st0{fill:#81DAEF;}
	.st1{fill:#38356D;}
	.st2{fill:#419FDD;}
	.st3{fill:#3687BD;}
	.st4{fill:#4AB7FF;}
	.st5{fill:#FFCC00;}
	.st6{fill:#E9BB00;}
	.st7{fill:#FFDC51;}
	.st8{fill:#E86A17;}
	.st9{fill:#BB5512;}
	.st10{fill:#FF7419;}
	.st11{fill:#28B463;}
	.st12{fill:#2ECC71;}
	.st13{fill:#33E27D;}
	.st14{fill:#C48647;}
	.st15{fill:#BB8044;}
	.st16{fill:#AD763E;}
	.st17{fill:#A8733D;}
	.st18{fill-opacity:0.102;}
	.st19{fill:#28B162;}
	.st20{fill:#31D978;}
	.st21{fill:#B8824D;}
	.st22{fill:#2A7DB4;}
	.st23{fill:#3498DB;}
	.st24{fill:#FFE0B1;}
	.st25{fill:#25A85C;}
	.st26{fill:#E7CBA0;}
	.st27{fill:#D7BD93;}
	.st28{fill:#9F7042;}
	.st29{fill:#BFA984;}
	.st30{fill:#FFFFFF;}
	.st31{fill:#7F7058;}
	.st32{fill:#FFFFFF;fill-opacity:0.302;}
	.st33{fill:#AD7A48;}
	.st34{fill:#C68C53;}
	.st35{fill:#916B4E;}
	.st36{fill:#AA7E5C;}
	.st37{fill:#E0C1A2;}
	.st38{fill:#ECCFB1;}
	.st39{fill:#E0C79A;}
	.st40{fill:#637480;}
	.st41{fill:#7E95A3;}
	.st42{fill:#738895;}
	.st43{fill:#E7E2DA;}
	.st44{fill:#544B4B;}
	.st45{fill:#5D5454;}
	.st46{fill:#F7F7F7;}
	.st47{fill:#EEEEEE;}
	.st48{fill:#B47B41;}
	.st49{fill:none;}
	.st50{fill:none;stroke:#288C50;stroke-width:1.4842;stroke-miterlimit:10;}
	.st51{fill:#492D14;}
</style>
<g transform="matrix( 1, 0, 0, 1, 0,0) ">
	<g>
		<g id="Layer0_2_FILL_15_">
			<path class="st16" d="M64.4,106.6h16.1l0.7-6.3l-15.9-1.9L64.4,106.6 M106.5,57.4l-5.6,0.7l1.1,9l4.5-0.5V57.4 M0,57.4v9.1
				l4.5-0.6l-1.1-9L0,57.4 M64.4,0.1l-0.9,7.7l15.9,1.8L80.5,0H64.4 M91.9,82.5L91,91.6l9,0.9l1-9.1L91.9,82.5 M83.5,33.5l-6.2,6.6
				l6.6,6.2l6.2-6.6L83.5,33.5 M45.2,96.2L48.9,80l-16.2-3.7l-3.6,16.3L45.2,96.2 M30.2,52.9l4.2-16.5L18,32.2l-4.2,16.4L30.2,52.9
				 M54.8,47.8l-12.4,3.9l4,12.4l12.3-3.9L54.8,47.8 M8.7,14.8l8.2-3.7l-3.7-8.2L4.9,6.6L8.7,14.8z"/>
			<path class="st15" d="M106.5,0.1h-26l-1.1,9.6L63.5,7.9l0.9-7.7H0v57.2L3.4,57l1.1,9L0,66.6v40.1h64.4l0.9-8.2l15.9,1.8l-0.7,6.3
				h26V66.5L102,67l-1.1-9l5.6-0.7V0.1 M32.1,5l11.5,10.6L33,27.1L21.5,16.4L32.1,5 M17,11.1l-8.2,3.7L5.1,6.6l8.3-3.7L17,11.1
				 M42.4,51.7l12.4-3.9l3.9,12.4l-12.3,3.9L42.4,51.7 M34.4,36.4l-4.2,16.5l-16.4-4.3L18,32.2L34.4,36.4 M3,94.9l8.9-1.4l1.4,8.9
				l-8.9,1.4L3,94.9 M48.9,80l-3.7,16.2l-16.1-3.6l3.6-16.3L48.9,80 M77.3,40.1l6.2-6.6l6.6,6.2l-6.3,6.6L77.3,40.1 M71.1,73.7
				l12.3-3.9l3.9,12.3l-12.3,4L71.1,73.7 M91,91.5l0.9-9.1l9.1,0.9l-1,9.1L91,91.5z"/>
			<path class="st14" d="M83.4,69.8l-12.3,3.9L75,86l12.3-3.9L83.4,69.8 M11.9,93.5L3,94.9l1.4,8.9l8.9-1.4L11.9,93.5 M43.6,15.5
				L32.1,4.9L21.5,16.4L33,27L43.6,15.5z"/>
		</g>
	</g>
</g>
</svg>
