<?xml version="1.0" encoding="utf-8"?>
<!-- Generator: Adobe Illustrator 23.1.1, SVG Export Plug-In . SVG Version: 6.00 Build 0)  -->
<svg version="1.1" id="Layer_1" xmlns="http://www.w3.org/2000/svg" xmlns:xlink="http://www.w3.org/1999/xlink" x="0px" y="0px"
	 viewBox="0 0 106.2 170.4" style="enable-background:new 0 0 106.2 170.4;" xml:space="preserve">
<style type="text/css">
	.st0{fill:#81DAEF;}
	.st1{fill:#38356D;}
	.st2{fill:#419FDD;}
	.st3{fill:#3687BD;}
	.st4{fill:#4AB7FF;}
	.st5{fill:#FFCC00;}
	.st6{fill:#E9BB00;}
	.st7{fill:#FFDC51;}
	.st8{fill:#E86A17;}
	.st9{fill:#BB5512;}
	.st10{fill:#FF7419;}
	.st11{fill:#28B463;}
	.st12{fill:#2ECC71;}
	.st13{fill:#33E27D;}
	.st14{fill:#C48647;}
	.st15{fill:#BB8044;}
	.st16{fill:#AD763E;}
	.st17{fill:#A8733D;}
	.st18{fill-opacity:0.102;}
	.st19{fill:#28B162;}
	.st20{fill:#31D978;}
	.st21{fill:#B8824D;}
	.st22{fill:#2A7DB4;}
	.st23{fill:#3498DB;}
	.st24{fill:#FFE0B1;}
	.st25{fill:#25A85C;}
	.st26{fill:#E7CBA0;}
	.st27{fill:#D7BD93;}
	.st28{fill:#9F7042;}
	.st29{fill:#BFA984;}
	.st30{fill:#FFFFFF;}
	.st31{fill:#7F7058;}
	.st32{fill:#FFFFFF;fill-opacity:0.302;}
	.st33{fill:#AD7A48;}
	.st34{fill:#C68C53;}
	.st35{fill:#916B4E;}
	.st36{fill:#AA7E5C;}
	.st37{fill:#E0C1A2;}
	.st38{fill:#ECCFB1;}
	.st39{fill:#E0C79A;}
	.st40{fill:#637480;}
	.st41{fill:#7E95A3;}
	.st42{fill:#738895;}
	.st43{fill:#E7E2DA;}
	.st44{fill:#544B4B;}
	.st45{fill:#5D5454;}
	.st46{fill:#F7F7F7;}
	.st47{fill:#EEEEEE;}
	.st48{fill:#B47B41;}
	.st49{fill:none;}
	.st50{fill:none;stroke:#288C50;stroke-width:1.4842;stroke-miterlimit:10;}
	.st51{fill:#492D14;}
</style>
<g>
	<g>
		<g id="Layer0_12_FILL_15_">
			<path class="st14" d="M90.4,35.1L101,23.6l-7.5-6.8l-4.9,4.4L84.9,18l-6,6.6L90.4,35.1 M30,22l-12.3,3.9l3.9,12.3l12.3-3.9L30,22
				z"/>
			<path class="st15" d="M35.4,5.4L17.6,21.2L-0.1,5.4v61.1h106.4V5.4L93.5,16.8l7.5,6.8L90.4,35.1L78.9,24.5l6-6.6L70.8,5.3
				L53.1,21.1L35.4,5.4 M17.7,26L30,22.1l3.9,12.3l-12.3,3.9L17.7,26 M55.2,33.6l-8.8-2.2l2.2-8.7l8.7,2.1L55.2,33.6z"/>
			<path class="st16" d="M46.4,31.4l8.8,2.2l2.1-8.8l-8.7-2.1L46.4,31.4z"/>
			<path class="st17" d="M-0.1,0v5.4l17.7,15.8L35.4,5.4L53,21.2L70.7,5.4L84.8,18l3.7,3.2l4.9-4.4l12.8-11.4V0L88.5,13.3L70.7,0
				L53,13.3L35.4,0L17.6,13.3L-0.1,0z"/>
		</g>
	</g>
	<g id="Layer0_2_FILL_14_">
		<path class="st16" d="M64.3,170.2h16.1l0.7-6.3l-15.9-1.8L64.3,170.2 M106.3,121l-5.6,0.7l1.1,9l4.5-0.5V121 M0,121v9.1l4.5-0.6
			l-1.1-9L0,121 M64.3,63.8l-0.9,7.7l15.9,1.8l1.1-9.6L64.3,63.8 M91.8,146.1l-0.9,9.1l9,0.9l1-9.1L91.8,146.1 M83.4,97.1l-6.2,6.6
			l6.6,6.2l6.2-6.6L83.4,97.1 M45.2,159.8l3.7-16.2l-16.2-3.7l-3.6,16.3L45.2,159.8 M30.2,116.5l4.2-16.5L18,95.8l-4.2,16.4
			L30.2,116.5 M54.8,111.4l-12.4,3.9l4,12.4l12.3-3.9L54.8,111.4 M8.7,78.5l8.2-3.7l-3.7-8.2l-8.3,3.7L8.7,78.5z"/>
		<path class="st15" d="M106.3,63.8h-26l-1.1,9.6l-15.9-1.8l0.9-7.7H-0.1v57.2l3.4-0.4l1.1,9l-4.5,0.6v40.1h64.3l0.9-8.2L81,164
			l-0.7,6.3h26v-40.1l-4.5,0.5l-1.1-9l5.6-0.7L106.3,63.8 M32.1,68.6l11.5,10.6L33,90.7L21.5,80.1L32.1,68.6 M16.9,74.7l-8.2,3.7
			L5,70.2l8.3-3.7L16.9,74.7 M42.4,115.3l12.4-3.9l3.9,12.4l-12.3,3.9L42.4,115.3 M34.4,100l-4.2,16.5l-16.4-4.3L18,95.8L34.4,100
			 M3,158.5l8.9-1.4l1.4,8.9l-8.9,1.4L3,158.5 M48.9,143.6l-3.7,16.2l-16.1-3.6l3.6-16.3L48.9,143.6 M77.1,103.7l6.2-6.6l6.6,6.2
			l-6.2,6.6L77.1,103.7 M71,137.4l12.3-3.9l3.9,12.3l-12.3,3.9L71,137.4 M90.9,155.2l0.9-9.1l9.1,0.9l-1,9.1L90.9,155.2z"/>
		<path class="st14" d="M83.3,133.5L71,137.4l3.9,12.3l12.3-3.9L83.3,133.5 M11.9,157.1L3,158.5l1.4,8.9l8.9-1.4L11.9,157.1
			 M43.6,79.1L32.1,68.5L21.5,80L33,90.6L43.6,79.1z"/>
	</g>
</g>
</svg>
