<?xml version="1.0" encoding="utf-8"?>
<!-- Generator: Adobe Illustrator 23.1.1, SVG Export Plug-In . SVG Version: 6.00 Build 0)  -->
<svg version="1.1" id="Layer_1" xmlns="http://www.w3.org/2000/svg" xmlns:xlink="http://www.w3.org/1999/xlink" x="0px" y="0px"
	 viewBox="0 0 106.2 305.7" style="enable-background:new 0 0 106.2 305.7;" xml:space="preserve">
<style type="text/css">
	.st0{fill:#81DAEF;}
	.st1{fill:#38356D;}
	.st2{fill:#419FDD;}
	.st3{fill:#3687BD;}
	.st4{fill:#4AB7FF;}
	.st5{fill:#FFCC00;}
	.st6{fill:#E9BB00;}
	.st7{fill:#FFDC51;}
	.st8{fill:#E86A17;}
	.st9{fill:#BB5512;}
	.st10{fill:#FF7419;}
	.st11{fill:#28B463;}
	.st12{fill:#2ECC71;}
	.st13{fill:#33E27D;}
	.st14{fill:#C48647;}
	.st15{fill:#BB8044;}
	.st16{fill:#AD763E;}
	.st17{fill:#A8733D;}
	.st18{fill-opacity:0.102;}
	.st19{fill:#28B162;}
	.st20{fill:#31D978;}
	.st21{fill:#B8824D;}
	.st22{fill:#2A7DB4;}
	.st23{fill:#3498DB;}
	.st24{fill:#FFE0B1;}
	.st25{fill:#25A85C;}
	.st26{fill:#E7CBA0;}
	.st27{fill:#D7BD93;}
	.st28{fill:#9F7042;}
	.st29{fill:#BFA984;}
	.st30{fill:#FFFFFF;}
	.st31{fill:#7F7058;}
	.st32{fill:#FFFFFF;fill-opacity:0.302;}
	.st33{fill:#AD7A48;}
	.st34{fill:#C68C53;}
	.st35{fill:#916B4E;}
	.st36{fill:#AA7E5C;}
	.st37{fill:#E0C1A2;}
	.st38{fill:#ECCFB1;}
	.st39{fill:#E0C79A;}
	.st40{fill:#637480;}
	.st41{fill:#7E95A3;}
	.st42{fill:#738895;}
	.st43{fill:#E7E2DA;}
	.st44{fill:#544B4B;}
	.st45{fill:#5D5454;}
	.st46{fill:#F7F7F7;}
	.st47{fill:#EEEEEE;}
	.st48{fill:#B47B41;}
	.st49{fill:none;}
	.st50{fill:none;stroke:#288C50;stroke-width:1.4842;stroke-miterlimit:10;}
	.st51{fill:#492D14;}
</style>
<g transform="matrix( 1, 0, 0, 1, 0,0) ">
	<g>
		<g id="Layer0_2_FILL_15_">
			<path class="st16" d="M64.2,276.2h16.1l0.7-6.3L65.1,268L64.2,276.2 M106.3,227l-5.6,0.7l1.1,9l4.5-0.5V227 M-0.2,227v9.1
				l4.5-0.6l-1.1-9L-0.2,227 M64.2,169.7l-0.9,7.7l15.9,1.8l1.1-9.6H64.2 M91.7,252.1l-0.9,9.1l9,0.9l1-9.1L91.7,252.1 M83.3,203.1
				l-6.2,6.6l6.6,6.2l6.2-6.6L83.3,203.1 M45,265.8l3.7-16.2l-16.2-3.7l-3.6,16.3L45,265.8 M30,222.5l4.2-16.5l-16.4-4.2l-4.2,16.4
				L30,222.5 M54.6,217.4l-12.4,3.9l4,12.4l12.3-3.9L54.6,217.4 M8.5,184.4l8.2-3.7l-3.7-8.2l-8.3,3.7L8.5,184.4z"/>
			<path class="st15" d="M106.3,169.7h-26l-1.1,9.6l-15.9-1.8l0.9-7.7H-0.2V227l3.4-0.4l1.1,9l-4.5,0.6v40.1h64.4l0.9-8.2l15.9,1.8
				l-0.7,6.3h26v-40.1l-4.5,0.5l-1.1-9l5.6-0.7L106.3,169.7 M31.9,174.6l11.5,10.6l-10.6,11.5L21.3,186L31.9,174.6 M16.8,180.7
				l-8.2,3.7l-3.7-8.2l8.3-3.7L16.8,180.7 M42.2,221.3l12.4-3.9l3.9,12.4l-12.3,3.9L42.2,221.3 M34.2,206L30,222.5l-16.4-4.3
				l4.2-16.4L34.2,206 M2.8,264.5l8.9-1.4l1.4,8.9l-8.9,1.4L2.8,264.5 M48.7,249.6L45,265.8l-16.1-3.6l3.6-16.3L48.7,249.6
				 M77.1,209.7l6.2-6.6l6.6,6.2l-6.3,6.6L77.1,209.7 M70.9,243.3l12.3-3.9l3.9,12.3l-12.3,4L70.9,243.3 M90.8,261.1l0.9-9.1
				l9.1,0.9l-1,9.1L90.8,261.1z"/>
			<path class="st14" d="M83.2,239.4l-12.3,3.9l3.9,12.3l12.3-3.9L83.2,239.4 M11.7,263.1l-8.9,1.4l1.4,8.9l8.9-1.4L11.7,263.1
				 M43.4,185.1l-11.5-10.6L21.3,186l11.5,10.6L43.4,185.1z"/>
		</g>
	</g>
</g>
<g>
	<g>
		<g id="Layer0_12_FILL_24_">
			<path class="st14" d="M90.4,35.1L101,23.6l-7.5-6.8l-4.9,4.4L84.9,18l-6,6.6L90.4,35.1 M29.9,22l-12.3,3.9l3.9,12.3l12.3-3.9
				L29.9,22z"/>
			<path class="st15" d="M35.3,5.4L17.5,21.2L-0.2,5.4v61.2h106.5V5.4L93.5,16.8l7.5,6.8L90.4,35.1L78.9,24.5l6-6.6L70.8,5.3
				L53,21.1L35.3,5.4 M17.6,26l12.3-3.9l3.9,12.3l-12.3,3.9L17.6,26 M55.1,33.6l-8.8-2.2l2.2-8.7l8.7,2.1L55.1,33.6z"/>
			<path class="st16" d="M46.3,31.4l8.8,2.2l2.1-8.8l-8.7-2.1L46.3,31.4z"/>
			<path class="st17" d="M-0.2,0v5.4l17.7,15.8L35.3,5.4l17.6,15.8L70.7,5.4L84.8,18l3.7,3.2l4.9-4.4l12.8-11.4V0L88.5,13.3L70.7,0
				L52.9,13.3L35.3,0L17.5,13.3L-0.2,0z"/>
		</g>
	</g>
	<g id="Layer0_2_FILL_16_">
		<path class="st16" d="M64.2,170.3h16.1L81,164l-15.9-1.8L64.2,170.3 M106.3,121.1l-5.6,0.7l1.1,9l4.5-0.5V121.1 M-0.2,121.4v9.1
			l4.5-0.6l-1.1-9L-0.2,121.4 M64.2,63.8l-0.9,7.7l15.9,1.8l1.1-9.6H64.2 M91.7,146.2l-0.9,9.1l9,0.9l1-9.1L91.7,146.2 M83.3,97.2
			l-6.2,6.6l6.6,6.2l6.2-6.6L83.3,97.2 M45,159.9l3.7-16.2L32.5,140l-3.6,16.3L45,159.9 M30,116.6l4.2-16.5l-16.4-4.2l-4.2,16.4
			L30,116.6 M54.6,111.5l-12.4,3.9l4,12.4l12.3-3.9L54.6,111.5 M8.5,78.6l8.2-3.7L13,66.6l-8.3,3.7L8.5,78.6z"/>
		<path class="st15" d="M106.3,63.9h-26l-1.1,9.6l-15.9-1.8l0.9-7.7H-0.2v57.3l3.4-0.4l1.1,9l-4.5,0.6v40.1h64.4l0.9-8.2l15.9,1.8
			l-0.7,6.3h26v-40.1l-4.5,0.5l-1.1-9l5.6-0.7L106.3,63.9 M32,68.7l11.5,10.6L32.9,90.8L21.4,80.2L32,68.7 M16.8,74.8l-8.2,3.7
			l-3.7-8.2l8.3-3.7L16.8,74.8 M42.3,115.4l12.4-3.9l3.9,12.4l-12.3,3.9L42.3,115.4 M34.3,100.1l-4.2,16.5l-16.4-4.3l4.2-16.4
			L34.3,100.1 M2.9,158.6l8.9-1.4l1.4,8.9l-8.9,1.4L2.9,158.6 M48.8,143.7L45.1,160L29,156.3l3.6-16.3L48.8,143.7 M77.1,103.8
			l6.2-6.6l6.6,6.2l-6.2,6.6L77.1,103.8 M71,137.5l12.3-3.9l3.9,12.3l-12.3,3.9L71,137.5 M90.9,155.3l0.9-9.1l9.1,0.9l-1,9.1
			L90.9,155.3z"/>
		<path class="st14" d="M83.3,133.6L71,137.5l3.9,12.3l12.3-3.9L83.3,133.6 M11.8,157.2l-8.9,1.4l1.4,8.9l8.9-1.4L11.8,157.2
			 M43.5,79.2L32,68.6L21.4,80.1l11.5,10.6L43.5,79.2z"/>
	</g>
</g>
<g transform="matrix( 1, 0, 0, 1, 0,0) ">
	<g>
		<g id="Layer0_2_FILL_17_">
			<path class="st16" d="M64.2,382.3h16.1L81,376l-15.9-1.9L64.2,382.3 M106.3,333.1l-5.6,0.7l1.1,9l4.5-0.5V333.1 M-0.2,333.1v9.1
				l4.5-0.6l-1.1-9L-0.2,333.1 M64.2,275.8l-0.9,7.7l15.9,1.8l1.1-9.6H64.2 M91.7,358.2l-0.9,9.1l9,0.9l1-9.1L91.7,358.2
				 M83.3,309.2l-6.2,6.6l6.6,6.2l6.2-6.6L83.3,309.2 M45,371.9l3.7-16.2L32.5,352l-3.6,16.3L45,371.9 M30,328.6l4.2-16.5l-16.4-4.2
				l-4.2,16.4L30,328.6 M54.6,323.5l-12.4,3.9l4,12.4l12.3-3.9L54.6,323.5 M8.5,290.5l8.2-3.7l-3.7-8.2l-8.3,3.7L8.5,290.5z"/>
			<path class="st15" d="M106.3,275.8h-26l-1.1,9.6l-15.9-1.8l0.9-7.7H-0.2v57.2l3.4-0.4l1.1,9l-4.5,0.6v40.1h64.4l0.9-8.2L81,376
				l-0.7,6.3h26v-40.1l-4.5,0.5l-1.1-9l5.6-0.7L106.3,275.8 M31.9,280.7l11.5,10.6l-10.6,11.5l-11.5-10.7L31.9,280.7 M16.8,286.8
				l-8.2,3.7l-3.7-8.2l8.3-3.7L16.8,286.8 M42.2,327.4l12.4-3.9l3.9,12.4l-12.3,3.9L42.2,327.4 M34.2,312.1L30,328.6l-16.4-4.3
				l4.2-16.4L34.2,312.1 M2.8,370.6l8.9-1.4l1.4,8.9l-8.9,1.4L2.8,370.6 M48.7,355.7L45,371.9l-16.1-3.6l3.6-16.3L48.7,355.7
				 M77.1,315.8l6.2-6.6l6.6,6.2l-6.3,6.6L77.1,315.8 M70.9,349.4l12.3-3.9l3.9,12.3l-12.3,4L70.9,349.4 M90.8,367.2l0.9-9.1
				l9.1,0.9l-1,9.1L90.8,367.2z"/>
			<path class="st14" d="M83.2,345.5l-12.3,3.9l3.9,12.3l12.3-3.9L83.2,345.5 M11.7,369.2l-8.9,1.4l1.4,8.9l8.9-1.4L11.7,369.2
				 M43.4,291.2l-11.5-10.6l-10.6,11.5l11.5,10.6L43.4,291.2z"/>
		</g>
	</g>
</g>
</svg>
