<?xml version="1.0" encoding="utf-8"?>
<!-- Generator: Adobe Illustrator 23.1.1, SVG Export Plug-In . SVG Version: 6.00 Build 0)  -->
<svg version="1.1" id="Layer_1" xmlns="http://www.w3.org/2000/svg" xmlns:xlink="http://www.w3.org/1999/xlink" x="0px" y="0px"
	 viewBox="0 0 84 133.4" style="enable-background:new 0 0 84 133.4;" xml:space="preserve">
<style type="text/css">
	.st0{fill:#81DAEF;}
	.st1{fill:#38356D;}
	.st2{fill:#419FDD;}
	.st3{fill:#3687BD;}
	.st4{fill:#4AB7FF;}
	.st5{fill:#FFCC00;}
	.st6{fill:#E9BB00;}
	.st7{fill:#FFDC51;}
	.st8{fill:#E86A17;}
	.st9{fill:#BB5512;}
	.st10{fill:#FF7419;}
	.st11{fill:#28B463;}
	.st12{fill:#2ECC71;}
	.st13{fill:#33E27D;}
	.st14{fill:#C48647;}
	.st15{fill:#BB8044;}
	.st16{fill:#AD763E;}
	.st17{fill:#A8733D;}
	.st18{fill-opacity:0.102;}
	.st19{fill:#28B162;}
	.st20{fill:#31D978;}
	.st21{fill:#B8824D;}
	.st22{fill:#2A7DB4;}
	.st23{fill:#3498DB;}
	.st24{fill:#FFE0B1;}
	.st25{fill:#25A85C;}
	.st26{fill:#E7CBA0;}
	.st27{fill:#D7BD93;}
	.st28{fill:#9F7042;}
	.st29{fill:#BFA984;}
	.st30{fill:#FFFFFF;}
	.st31{fill:#7F7058;}
	.st32{fill:#FFFFFF;fill-opacity:0.302;}
	.st33{fill:#AD7A48;}
	.st34{fill:#C68C53;}
	.st35{fill:#916B4E;}
	.st36{fill:#AA7E5C;}
	.st37{fill:#E0C1A2;}
	.st38{fill:#ECCFB1;}
	.st39{fill:#E0C79A;}
	.st40{fill:#637480;}
	.st41{fill:#7E95A3;}
	.st42{fill:#738895;}
	.st43{fill:#E7E2DA;}
	.st44{fill:#544B4B;}
	.st45{fill:#5D5454;}
	.st46{fill:#F7F7F7;}
	.st47{fill:#EEEEEE;}
	.st48{fill:#B47B41;}
	.st49{fill:none;}
	.st50{fill:none;stroke:#288C50;stroke-width:1.4842;stroke-miterlimit:10;}
	.st51{fill:#492D14;}
</style>
<g>
	
		<g id="armRight_FL_3_" transform="matrix( -0.9877471923828125, 0.2588043212890625, 0.1600341796875, 0.8716888427734375, 457.1,288.85) ">
		<g transform="matrix( 1, 0, 0, 1, 0,0) ">
			<g>
				<g>
					<path class="st43" d="M346.9-333.6c0-0.1,0.1-0.2,0.1-0.3l-21.3-3.9c-1.6,2.2-1.7,4.9-0.4,8l1.5-0.3L346.9-333.6z"/>
					<path class="st40" d="M347.7-333.7l0.7-4.2l-22-4.1c-1.2,0.6-1.5,2-0.7,4.3l21.3,3.9L347.7-333.7z"/>
					<path class="st24" d="M326.8-330c-0.4,5.2-0.4,10.3-0.1,15.4c2.9,2.8,6.5,4.5,10.8,5.4c4.5-7.5,7.6-15.6,9.4-24.3L326.8-330z"
						/>
					<path class="st41" d="M347.5-351.6c-1.8-2.6-4.2-4.1-7.2-4.6h-0.1c-0.6-0.1-1.1-0.1-1.6-0.1c-4.8-0.1-8.9,4.6-12.2,14.3l22,4.1
						l0.9-5.1C349.9-346.1,349.3-349,347.5-351.6z"/>
				</g>
			</g>
		</g>
	</g>
	
		<g id="handRight_FL_3_" transform="matrix( -0.9877471923828125, 0.2588043212890625, 0.177337646484375, 0.9659271240234375, 460.3,314) ">
		<g transform="matrix( 1, 0, 0, 1, 0,0) ">
			<g>
				<g>
					<path class="st24" d="M347.1-304.3c-1.7-4.7-3.7-8.1-6.1-10.2l-13.8,3.6c-1.1,0.3-1.6,1-1.4,2l0.2,0.8
						c2.6,11.5,7.1,16.4,13.7,14.7c2.3-0.6,4.6-1.5,6.9-2.6c1.5-0.8,2.1-1.7,1.9-2.9l-0.1-0.4c-0.4-1.4-0.8-2.7-1.1-4v0.1
						L347.1-304.3 M328.5-305.9c0-0.4,0.5-1,1.6-1.6c1-0.7,2.4-1.3,4-1.9c1.7-0.5,3.1-0.9,4.2-1c1.2-0.1,1.9,0,1.9,0.4
						c0.1,0.4-0.4,1-1.4,1.6c-1,0.7-2.4,1.4-4.1,1.9c-1.6,0.6-3,0.9-4.2,1C329.2-305.3,328.6-305.5,328.5-305.9z"/>
					<path class="st26" d="M330.1-307.6c-1.1,0.7-1.6,1.2-1.6,1.6c0.1,0.4,0.8,0.6,2,0.5c1.2-0.1,2.6-0.4,4.2-1
						c1.7-0.6,3-1.2,4.1-1.9c1-0.7,1.5-1.2,1.4-1.6c0-0.4-0.7-0.5-1.9-0.4c-1.1,0.1-2.5,0.5-4.2,1
						C332.4-308.9,331.1-308.2,330.1-307.6 M347.4-303.2c3-4.1,0.8-7.9-6.4-11.3c2.3,2.1,4.4,5.5,6.1,10.2L347.4-303.2L347.4-303.2z
						"/>
				</g>
			</g>
		</g>
	</g>
	
		<g id="legLeft_FL_FL_FL_FL_FL_FL_FL_FL_FL_FL_FL_FL_FL_FL_FL_FL_FL_FL_FL_FL_3_" transform="matrix( -1, 0, -0.2476806640625, 1, 430.75,313.85) ">
		<g transform="matrix( 1, 0, 0, 1, 0,0) ">
			<g>
				<g>
					<path class="st35" d="M465.3-190.1l0.1-4.1h-25.3v2.9L465.3-190.1z"/>
					<path class="st36" d="M465.3-180.5v-9.6l-25.3-1.3l2.2,3.8H440c-1.7,0.9-3.3,2.2-4.6,4.1v3.1h29.9V-180.5z"/>
					<path class="st37" d="M465.3-194.3v-4.9H440v4.9H465.3z"/>
					<path class="st38" d="M461.7-209.8c-2.5-2.4-5.5-3.6-9-3.6h-0.1c-3.5,0-6.5,1.2-8.9,3.6c-2.5,2.4-3.7,5.4-3.7,8.9v1.8h25.3
						v-1.8C465.3-204.4,464.1-207.3,461.7-209.8z"/>
				</g>
			</g>
		</g>
	</g>
	
		<g id="legRight_FL_FL_FL_FL_FL_FL_FL_FL_FL_FL_FL_FL_FL_FL_FL_FL_FL_FL_FL_FL_FL_3_" transform="matrix( -1, 0, 0.1083526611328125, 1, 451.9,313.85) ">
		<g transform="matrix( 1, 0, 0, 1, 0,0) ">
			<g>
				<g>
					<path class="st35" d="M383.8-190.1l0.1-4.1h-25.3v2.9L383.8-190.1z"/>
					<path class="st36" d="M383.8-180.5v-9.6l-25.3-1.3l2.2,3.8h-2.2c-1.7,0.9-3.3,2.2-4.6,4.1v3.1h29.9V-180.5z"/>
					<path class="st37" d="M383.9-194.3v-4.9h-25.3v4.9H383.9z"/>
					<path class="st38" d="M380.3-209.8c-2.5-2.4-5.5-3.6-9-3.6h-0.1c-3.5,0-6.5,1.2-8.9,3.6c-2.5,2.4-3.7,5.4-3.7,8.9l0,1.8h25.3
						l0-1.8C383.9-204.4,382.7-207.3,380.3-209.8z"/>
				</g>
			</g>
		</g>
	</g>
	<g id="body_FL_FL_FL_FL_FL_FL_FL_FL_FL_FL_FL_FL_FL_FL_FL_FL_FL_FL_FL_FL_FL_3_" transform="matrix( 1, 0, 0, 1, 441.35,305.15) ">
		<g transform="matrix( 1, 0, 0, 1, 0,0) ">
			<g>
				<g>
					<path class="st21" d="M-369-192.8v-5.8h-36.5h-15.6h-3.5v5.8H-369 M-413.4-233.6c-0.6-1.1-1.3-2.2-2.1-3.4h-9.1v24.9
						c12.3-2.1,16.8-7.6,13.6-16.6l-3.3-1.7C-414.3-231.6-414-232.6-413.4-233.6 M-369-237h-8.7c1.3,3,1.6,6.1,0.9,9.4
						c-1.1,5.9,1.5,9.6,7.9,11.2L-369-237L-369-237z"/>
					<path class="st39" d="M-393.9-220.1l16.1-17h-33.1L-393.9-220.1z"/>
					<path class="st40" d="M-376.9-227.6c0.8-3.3,0.5-6.4-0.9-9.4l-16.1,17L-376.9-227.6 M-413.4-233.6c-0.5,1-0.9,2-1,3.1l3.3,1.7
						l17.3,8.7l-17-17C-412-236-412.8-234.9-413.4-233.6z"/>
					<path class="st41" d="M-411.2-228.8c3.2,9-1.3,14.5-13.6,16.6v13.6h3.5l10.3-7.2l5.3,7.2h36.5v-17.8c-6.4-1.6-9-5.4-7.9-11.2
						l-17,7.6L-411.2-228.8 M-392.2-214.9c-0.5-0.4-0.7-0.9-0.7-1.5s0.2-1.1,0.7-1.6c0.4-0.4,0.9-0.6,1.5-0.6s1.1,0.2,1.5,0.6
						c0.4,0.5,0.6,1,0.6,1.6s-0.2,1.1-0.6,1.5s-0.9,0.6-1.5,0.6S-391.8-214.5-392.2-214.9 M-394.2-208.8c3.4,0,6.4,0.3,8.8,0.9
						c2.2,0.6,3.4,1.3,3.6,2.1h-24.8c0.2-0.8,1.4-1.5,3.6-2.1C-400.5-208.5-397.6-208.8-394.2-208.8 M-415.6-237
						c0.8,1.2,1.5,2.3,2.1,3.4c0.6-1.2,1.5-2.4,2.6-3.4H-415.6z"/>
					<path class="st42" d="M-385.4-207.8c-2.4-0.6-5.4-0.9-8.8-0.9s-6.4,0.3-8.8,0.9c-2.2,0.6-3.4,1.3-3.6,2.1h24.8
						C-382-206.5-383.2-207.2-385.4-207.8z"/>
					<path class="st43" d="M-393-216.4c0,0.6,0.2,1.1,0.7,1.5c0.4,0.4,0.9,0.6,1.5,0.6s1.1-0.2,1.5-0.6s0.6-0.9,0.6-1.5
						s-0.2-1.1-0.6-1.6c-0.4-0.4-0.9-0.6-1.5-0.6s-1.1,0.2-1.5,0.6C-392.7-217.5-393-217-393-216.4 M-410.9-205.8l-10.3,7.2h15.6
						L-410.9-205.8z"/>
				</g>
			</g>
		</g>
	</g>
	
		<g id="armLeft_FL_FL_FL_FL_FL_FL_FL_FL_FL_FL_FL_FL_FL_FL_FL_FL_FL_FL_FL_FL_FL_3_" transform="matrix( 0.9660186767578125, 0.2584228515625, -0.23321533203125, 0.87176513671875, 424.55,289.35) ">
		<g transform="matrix( 1, 0, 0, 1, 0,0) ">
			<g>
				<g>
					<path class="st43" d="M-438.9-100.3c0-0.1,0.1-0.2,0.1-0.3l-21.3-3.9c-1.6,2.2-1.7,4.9-0.4,8l1.5-0.3L-438.9-100.3z"/>
					<path class="st40" d="M-438.1-100.4l0.7-4.2l-22-4.1c-1.2,0.6-1.5,2-0.7,4.3l21.3,3.9L-438.1-100.4z"/>
					<path class="st24" d="M-459-96.7c-0.4,5.2-0.4,10.3-0.1,15.4c2.9,2.8,6.5,4.5,10.8,5.4c4.5-7.5,7.6-15.6,9.4-24.3L-459-96.7z"
						/>
					<path class="st41" d="M-438.3-118.3c-1.8-2.6-4.2-4.1-7.2-4.6h-0.1c-0.6-0.1-1.1-0.1-1.6-0.1c-4.8-0.1-8.9,4.6-12.2,14.3
						l22,4.1l0.9-5.1C-435.9-112.8-436.5-115.6-438.3-118.3z"/>
				</g>
			</g>
		</g>
	</g>
	
		<g id="handLeft_FL_FL_FL_FL_FL_FL_FL_FL_FL_FL_FL_FL_FL_FL_FL_FL_FL_FL_FL_FL_FL_3_" transform="matrix( 0.965911865234375, -0.258819580078125, 0.258819580078125, 0.965911865234375, 422.3,310.3) ">
		<g transform="matrix( 1, 0, 0, 1, 0,0) ">
			<g>
				<g>
					<path class="st24" d="M-331.9-305.6c-1.7-4.7-3.7-8.1-6.1-10.2l-13.8,3.6c-1.1,0.3-1.6,1-1.4,2l0.2,0.8
						c2.6,11.5,7.1,16.4,13.7,14.7c2.3-0.6,4.6-1.5,6.9-2.6c1.5-0.8,2.1-1.7,1.9-2.9l-0.1-0.4c-0.4-1.4-0.8-2.7-1.1-4v0.1
						L-331.9-305.6 M-350.5-307.2c0-0.4,0.5-1,1.6-1.6c1-0.7,2.4-1.3,4-1.9c1.7-0.5,3.1-0.9,4.2-1c1.2-0.1,1.9,0,1.9,0.4
						c0.1,0.4-0.4,1-1.4,1.6c-1,0.7-2.4,1.4-4.1,1.9c-1.6,0.6-3,0.9-4.2,1C-349.7-306.6-350.4-306.8-350.5-307.2z"/>
					<path class="st26" d="M-348.9-308.9c-1.1,0.7-1.6,1.2-1.6,1.6c0.1,0.4,0.8,0.6,2,0.5c1.2-0.1,2.6-0.4,4.2-1
						c1.7-0.6,3-1.2,4.1-1.9c1-0.7,1.5-1.2,1.4-1.6c0-0.4-0.7-0.5-1.9-0.4c-1.1,0.1-2.5,0.5-4.2,1
						C-346.6-310.1-347.9-309.5-348.9-308.9 M-331.6-304.5c3-4.1,0.8-7.9-6.4-11.3c2.3,2.1,4.4,5.5,6.1,10.2L-331.6-304.5
						L-331.6-304.5z"/>
				</g>
			</g>
		</g>
	</g>
	<g transform="matrix( 0.9996185302734375, 0.0266265869140625, -0.0266265869140625, 0.9996185302734375, 439.95,286.9) ">
		<g transform="matrix( 1, 0, 0, 1, 0,0) ">
			<g>
				<g>
					<path class="st27" d="M-388.5-202.9c1.7-1.1,2.8-2.3,3.5-3.7l-27.4,0c0.7,1.4,1.8,2.6,3.5,3.7c2.8,1.9,6.2,2.8,10.2,2.8
						C-394.8-200.1-391.4-201.1-388.5-202.9z"/>
					<path class="st24" d="M-378.3-218.1c4.4,1.5,7.2-0.7,8.3-6.6c0-2.6,0-5.2-0.1-7.8c-0.2-3.3-0.5-6.7-1.1-10.1
						c-0.6-4.2-3-6.4-7.3-6.4l-43.3,0c-4.2,0-6.6,2.2-7.3,6.5c-0.5,3.7-0.9,7.4-1,11.2c3.1,10.7,7.1,14.9,12.1,12.6
						c1.1-0.4,2.2-0.8,3.4-1.1c4.7-1.4,10-2.1,15.8-2.1C-391-221.9-384.2-220.7-378.3-218.1z"/>
					<path class="st43" d="M-371-213.8c0.5-3.6,0.8-7.3,0.9-10.9c-1.1,5.9-3.9,8.1-8.3,6.6c-5.9-2.5-12.7-3.8-20.5-3.8
						c-5.9,0-11.1,0.7-15.8,2.1c-1.1,0.3-2.3,0.7-3.4,1.1c-4.9,2.3-9-1.9-12.1-12.6c-0.2,6,0.1,12.1,1,18.2c0.1,0.5,0.2,1,0.4,1.4
						c0.1,0.7,0.4,1.3,0.7,1.8c1.2,2.1,3.3,3.2,6.2,3.2h9.4l27.4,0h6.6c4,0,6.4-1.9,7.2-5.7c0-0.3,0.1-0.5,0.1-0.8
						C-371.1-213.4-371-213.6-371-213.8z"/>
				</g>
			</g>
		</g>
		<g transform="matrix( 1, 0, 0, 1, 0,0) ">
			<g>
				<g>
					<path class="st44" d="M-389-238.3l0.3,4.6l12.1-3.2C-379.9-239.3-384.1-239.8-389-238.3 M-403-236.3l0.3-4.7
						c-4.9-1.6-9-1.1-12.4,1.4L-403-236.3z"/>
					<path class="st31" d="M-387-215.6c0.4-0.1,0.7-0.4,0.9-0.7c0.1-0.3,0.2-0.7,0.1-1.1s-0.4-0.6-0.7-0.8c-0.3-0.2-0.7-0.2-1.1-0.1
						c-5.1,1.6-9.5,1.2-13.3-1.2c-0.3-0.2-0.7-0.3-1.1-0.2c-0.4,0-0.7,0.2-0.9,0.6c-0.2,0.3-0.3,0.7-0.2,1.1c0,0.4,0.2,0.7,0.6,0.9
						C-398.3-214.2-393.1-213.7-387-215.6z"/>
					<path class="st30" d="M-405.2-232.5c-1-1-2.2-1.6-3.6-1.6s-2.7,0.5-3.8,1.6c-1,1.1-1.4,2.4-1.4,3.9s0.5,2.7,1.4,3.8
						c1,1.1,2.3,1.6,3.8,1.6s2.7-0.5,3.6-1.6c1-1,1.6-2.3,1.6-3.8S-404.2-231.4-405.2-232.5 M-378.7-232.5c-1-1-2.2-1.6-3.6-1.6
						c-1.5,0-2.7,0.5-3.8,1.6c-1,1.1-1.4,2.4-1.4,3.9c0,1.5,0.5,2.7,1.4,3.8c1,1.1,2.3,1.6,3.8,1.6s2.7-0.5,3.6-1.6
						c1-1,1.6-2.3,1.6-3.8C-377.1-230.1-377.7-231.4-378.7-232.5z"/>
				</g>
			</g>
		</g>
		<g transform="matrix( 1, 0, 0, 1, 0,0) ">
			<g>
				<g>
					<path class="st31" d="M-405.7-225.5c0.6-0.9,0.9-1.9,0.9-3.1s-0.3-2.3-0.9-3.2c-0.6-0.9-1.3-1.3-2.1-1.3s-1.6,0.4-2.2,1.3
						s-0.9,2-0.9,3.2s0.3,2.3,0.9,3.1c0.6,0.9,1.4,1.4,2.2,1.4S-406.2-224.6-405.7-225.5 M-381.6-225.5c0.6-0.9,0.9-1.9,0.9-3.1
						s-0.3-2.3-0.9-3.2c-0.6-0.9-1.3-1.3-2.1-1.3c-0.9,0-1.6,0.4-2.2,1.3s-0.9,2-0.9,3.2s0.3,2.3,0.9,3.1c0.6,0.9,1.4,1.4,2.2,1.4
						C-382.9-224.1-382.2-224.6-381.6-225.5z"/>
				</g>
			</g>
		</g>
		<g transform="matrix( 1, 0, 0, 1, 0,0) ">
			<g>
				<g>
					<path class="st45" d="M-377.8-275.3c0.6-0.6,1.3-1,2.1-1.1c-8.2-1.2-17.7,0.3-28.5,4.4c-0.2,0-0.5,0.1-0.7,0.2
						c-5.4,1.6-11.6,4-18.6,7.3l-1.8,4.4l-4.4-1.9l-4.3,9.6c-2.7,7.1-1.2,16.7,4.3,28.6l8.6-21.3
						C-412.7-260.1-398.2-270.1-377.8-275.3 M-379.3-270.9l5.9,26.8l3.4,11.6l1.6-23.9L-379.3-270.9z"/>
					<path class="st44" d="M-395.5-244.4c6.9,1.5,14.2,1.6,22.1,0.3l-5.9-26.8c0.2-2,0.7-3.5,1.6-4.4c-20.5,5.2-34.9,15.2-43.3,30.1
						c5.1-2.6,10.4-3.3,15.8-2.1c2.9,0.8,5.3,2.5,7.3,5.1L-395.5-244.4z"/>
				</g>
			</g>
		</g>
	</g>
</g>
</svg>
