<?xml version="1.0" encoding="utf-8"?>
<!-- Generator: Adobe Illustrator 23.1.1, SVG Export Plug-In . SVG Version: 6.00 Build 0)  -->
<svg version="1.1" id="Layer_1" xmlns="http://www.w3.org/2000/svg" xmlns:xlink="http://www.w3.org/1999/xlink" x="0px" y="0px"
	 viewBox="0 0 83.9 130.8" style="enable-background:new 0 0 83.9 130.8;" xml:space="preserve">
<style type="text/css">
	.st0{fill:#AA7E5C;}
	.st1{fill:#81DAEF;}
	.st2{fill:#38356D;}
	.st3{fill:#419FDD;}
	.st4{fill:#3687BD;}
	.st5{fill:#4AB7FF;}
	.st6{fill:#FFCC00;}
	.st7{fill:#E9BB00;}
	.st8{fill:#FFDC51;}
	.st9{fill:#E86A17;}
	.st10{fill:#BB5512;}
	.st11{fill:#FF7419;}
	.st12{fill:#28B463;}
	.st13{fill:#2ECC71;}
	.st14{fill:#33E27D;}
	.st15{fill:#C48647;}
	.st16{fill:#BB8044;}
	.st17{fill:#AD763E;}
	.st18{fill:#A8733D;}
	.st19{fill-opacity:0.102;}
	.st20{fill:#28B162;}
	.st21{fill:#31D978;}
	.st22{fill:#B8824D;}
	.st23{fill:#2A7DB4;}
	.st24{fill:#3498DB;}
	.st25{fill:#FFE0B1;}
	.st26{fill:#25A85C;}
	.st27{fill:#E7CBA0;}
	.st28{fill:#D7BD93;}
	.st29{fill:#9F7042;}
	.st30{fill:#BFA984;}
	.st31{fill:#FFFFFF;}
	.st32{fill:#7F7058;}
	.st33{fill:#FFFFFF;fill-opacity:0.302;}
	.st34{fill:#AD7A48;}
	.st35{fill:#C68C53;}
	.st36{fill:#916B4E;}
	.st37{fill:#E0C1A2;}
	.st38{fill:#ECCFB1;}
	.st39{fill:#E0C79A;}
	.st40{fill:#637480;}
	.st41{fill:#7E95A3;}
	.st42{fill:#738895;}
	.st43{fill:#E7E2DA;}
	.st44{fill:#544B4B;}
	.st45{fill:#5D5454;}
	.st46{fill:#F7F7F7;}
	.st47{fill:#EEEEEE;}
	.st48{fill:#B47B41;}
	.st49{fill:none;}
	.st50{fill:none;stroke:#288C50;stroke-width:1.4842;stroke-miterlimit:10;}
	.st51{fill:#492D14;}
</style>
<polygon class="st0" points="43.8,129.2 44.5,130.8 46.3,130.8 46.5,129.4 47.1,129.4 47.5,130.8 49.3,130.8 49.8,129.4 50.5,129.4 
	50.9,130.8 52.6,130.8 53.1,129.4 53.8,129.4 54.4,130.8 56.2,130.8 56.8,129.4 57.5,129.4 58.1,130.8 59.8,130.8 60.3,129.4 
	61,129.4 61.8,130.8 63.3,130.8 63.7,129.4 64.2,129.4 64.9,130.8 66.8,130.8 67.2,129.4 67.7,129.4 68.4,130.8 70,130.8 
	70.4,129.4 71.1,129.4 71.6,130.8 73.7,130.8 73.8,129.5 73.5,128.5 43.7,128.6 "/>
<polygon class="st0" points="5.5,129.4 5.5,130.8 8,130.8 8.2,129.4 8.7,129.4 9.1,130.8 11,130.8 11.4,129.4 12.1,129.4 
	12.6,130.8 14.2,130.8 14.8,129.4 15.4,129.4 16,130.8 17.9,130.8 18.5,129.4 19.1,129.4 19.8,130.8 21.5,130.8 22,129.4 
	22.6,129.4 23.4,130.8 24.9,130.8 25.4,129.4 25.9,129.4 26.6,130.8 28.4,130.8 28.8,129.4 29.3,129.4 30,130.8 31.6,130.8 
	32.1,129.4 32.7,129.4 33.2,130.8 35.3,130.8 35.4,129.4 35.2,128.5 5.6,128.6 "/>
<g id="armRight_FL_4_" transform="matrix( -0.9877471923828125, 0.2588043212890625, 0.1600341796875, 0.8716888427734375, 457.1,288.85) ">
	<g transform="matrix( 1, 0, 0, 1, 0,0) ">
		<g>
			<g>
				<path class="st43" d="M402.4-357.1l1.4-0.6c0.3-3.6-0.6-6-2.8-7.1l-18.1,15.6c0,0.1,0.1,0.1,0.2,0.2L402.4-357.1z"/>
				<path class="st40" d="M382.9-349.2l18.1-15.6c0-2.5-0.7-3.7-2-3.5l-18.7,16.1l2,3.4L382.9-349.2z"/>
				<path class="st25" d="M383.1-349c4.3,6.9,9.6,12.5,16,16.8c3.6-3.2,6.4-6.8,8.1-11c-1.3-4.8-2.9-9.5-4.8-14L383.1-349z"/>
				<path class="st41" d="M377.9-356.3l2.4,4.1l18.7-16.1c-6-6.9-11.2-9-15.5-6.1c-0.5,0.3-1,0.6-1.4,1.1H382
					c-2.6,2.2-4.3,5-5.1,8.3C376.2-361.6,376.5-358.7,377.9-356.3z"/>
			</g>
		</g>
	</g>
</g>
<g id="handRight_FL_4_" transform="matrix( -0.9877471923828125, 0.2588043212890625, 0.177337646484375, 0.9659271240234375, 460.3,314) ">
	<g transform="matrix( 1, 0, 0, 1, 0,0) ">
		<g>
			<g>
				<path class="st25" d="M388-319.4l0.1,1.2v-0.1c0.1,1.4,0.2,2.8,0.3,4.2l0.1,0.4c0.1,1.2,1,1.7,2.7,1.6c2.5-0.1,4.9-0.5,7.2-1.1
					c6.6-1.8,9-8.6,7.4-20.4l-0.1-0.8c-0.1-1.1-0.8-1.4-1.9-1.1l-13.8,3.7C388.6-328.7,387.9-324.6,388-319.4 M402.7-329
					c-1.1,0.5-2.5,0.9-4.2,1.2c-1.7,0.3-3.2,0.4-4.4,0.3c-1.2-0.1-1.8-0.3-1.9-0.8c-0.1-0.4,0.4-0.8,1.6-1.4
					c1.1-0.5,2.5-0.9,4.2-1.2c1.7-0.3,3.1-0.4,4.3-0.4c1.2,0,1.9,0.3,2,0.7C404.4-330,403.8-329.5,402.7-329z"/>
				<path class="st27" d="M402.3-331.1c-1.2-0.1-2.6,0-4.3,0.4c-1.7,0.4-3.1,0.8-4.2,1.2c-1.2,0.5-1.7,1-1.6,1.4s0.7,0.7,1.9,0.8
					c1.2,0.1,2.6,0,4.4-0.3c1.7-0.3,3.1-0.7,4.2-1.2c1.2-0.5,1.7-1,1.6-1.5C404.2-330.9,403.6-331.1,402.3-331.1 M388.1-318.3
					l-0.1-1.2c-0.1-5.2,0.6-9.3,2-12.4C384.6-325.1,384-320.6,388.1-318.3L388.1-318.3z"/>
			</g>
		</g>
	</g>
</g>
<path class="st36" d="M45.7,118.4l-0.7-2.9h25.3l1,4.1L45.7,118.4z"/>
<path class="st0" d="M43.8,129.2l-0.8-3.1c1-1.9,2.1-3.2,3.6-4.1h2.2l-3.2-3.8l25.6,1.3l2.4,9.6H43.8L43.8,129.2z"/>
<path class="st37" d="M45,115.5l-1.2-4.9h25.3l1.2,4.9H45z"/>
<path class="st38" d="M68.8,108.9l0.5,1.8H43.8l-0.5-1.8c-0.8-3.5-0.3-6.4,1.5-8.9c1.8-2.4,4.5-3.6,8.1-3.6H53
	c3.5,0,6.8,1.2,9.9,3.6C65.9,102.5,67.9,105.4,68.8,108.9z"/>
<path class="st36" d="M73.5,128.1l0.3,1.3l-29.9-0.1l0-0.1l-0.1-0.6L73.5,128.1z"/>
<path class="st36" d="M11.3,118.4l0.3-2.9h25.3l-0.6,4.1L11.3,118.4z"/>
<path class="st0" d="M5.5,129.2l0.4-3.1c1.6-1.9,3.3-3.2,5.1-4.1h2.2l-1.8-3.8l25.1,1.3l-1.1,9.6H5.5L5.5,129.2z"/>
<path class="st37" d="M11.6,115.5l0.6-4.9h25.3l-0.6,4.9H11.6z"/>
<path class="st38" d="M37.7,108.9l-0.2,1.8H12.2l0.2-1.8c0.4-3.5,1.9-6.4,4.6-8.9c2.6-2.4,5.8-3.6,9.3-3.6h0.1
	c3.5,0,6.4,1.2,8.6,3.6C37.2,102.5,38.1,105.4,37.7,108.9z"/>
<g id="body_FL_FL_FL_FL_FL_FL_FL_FL_FL_FL_FL_FL_FL_FL_FL_FL_FL_FL_FL_FL_FL_4_" transform="matrix( 1, 0, 0, 1, 441.35,305.15) ">
	<g transform="matrix( 1, 0, 0, 1, 0,0) ">
		<g>
			<g>
				<path class="st39" d="M-387.9-241.1H-421l16.1,17L-387.9-241.1z"/>
				<path class="st41" d="M-387.7-232.9l-17.3,8.7l-17-7.6c1.1,5.9-1.5,9.6-7.9,11.2v17.8h36.5l5.3-7.2l10.3,7.2h3.5v-13.6
					C-386.4-218.3-390.9-223.9-387.7-232.9 M-406.6-219c-0.4,0.4-0.9,0.6-1.5,0.6s-1.1-0.2-1.5-0.6s-0.6-0.9-0.6-1.5
					s0.2-1.1,0.6-1.6c0.4-0.4,0.9-0.6,1.5-0.6s1.1,0.2,1.5,0.6c0.5,0.5,0.7,1,0.7,1.6S-406.1-219.4-406.6-219 M-404.6-212.9
					c3.4,0,6.4,0.3,8.8,0.9c2.2,0.6,3.4,1.3,3.6,2.1H-417c0.2-0.8,1.5-1.5,3.6-2.1C-411-212.6-408.1-212.9-404.6-212.9
					 M-390.3-241.1c1.1,1,4.3,2.2,4.9,3.4c0.6-1.1,1.3-2.2,2.1-3.4H-390.3z"/>
				<path class="st42" d="M-417.1-209.9h24.8c-0.2-0.8-1.4-1.5-3.6-2.1c-2.4-0.6-5.4-0.9-8.8-0.9c-3.4,0-6.4,0.3-8.8,0.9
					C-415.6-211.3-416.8-210.6-417.1-209.9z"/>
				<path class="st43" d="M-405.9-220.5c0-0.6-0.2-1.1-0.7-1.6c-0.4-0.4-0.9-0.6-1.5-0.6s-1.1,0.2-1.5,0.6c-0.4,0.5-0.6,1-0.6,1.6
					s0.2,1.1,0.6,1.5s0.9,0.6,1.5,0.6s1.1-0.2,1.5-0.6C-406.1-219.4-405.9-219.9-405.9-220.5 M-393.2-202.7h15.6l-10.3-7.2
					L-393.2-202.7z"/>
				<path class="st22" d="M-429.8-196.9h55.7v-5.8h-3.5h-15.6h-36.5v5.8 M-385.4-237.7c0.5,1,0.9,2,1,3.1l-3.3,1.7
					c-3.2,9,1.3,14.5,13.6,16.6v-24.9h-9.1C-384-240-384.8-238.8-385.4-237.7 M-429.8-220.5c6.4-1.6,9-5.4,7.9-11.2
					c-0.8-3.3,3.5-6.4,4.9-9.4l-2.2-0.5c0,0-2.7-0.3-4.9,1.8c-2.9,2.7-5.3,8.1-5.5,10.1C-429.8-227.8-429.8-220.5-429.8-220.5z"/>
				<path class="st40" d="M-417.1-241.1c0,0-5.3,5.6-5.7,9.6c4.4,1.8,17.9,7.4,17.9,7.4L-417.1-241.1 M-390.3-241.1l-14.7,17
					l17.3-8.7l3.3-0.7c-0.1-1.1-0.5-3.2-1-4.2C-386.1-239-385.9-241.1-390.3-241.1z"/>
			</g>
		</g>
	</g>
</g>
<g id="armLeft_FL_FL_FL_FL_FL_FL_FL_FL_FL_FL_FL_FL_FL_FL_FL_FL_FL_FL_FL_FL_FL_4_" transform="matrix( 0.9660186767578125, 0.2584228515625, -0.23321533203125, 0.87176513671875, 424.55,289.35) ">
	<g transform="matrix( 1, 0, 0, 1, 0,0) ">
		<g>
			<g>
				<path class="st43" d="M-386.1-122.9l1.4-0.6c-0.2-3.5-1.5-5.7-3.9-6.7l-16.7,15.1c0.1,0.1,0.1,0.1,0.2,0.2L-386.1-122.9z"/>
				<path class="st40" d="M-405.3-115.1l16.7-15.1c-0.4-2.4-1.2-3.5-2.5-3.3l-17.2,15.7l2.5,3.3L-405.3-115.1z"/>
				<path class="st25" d="M-405.1-114.9c5.5,6.6,11.8,11.9,19.1,15.9c3.3-3.1,5.7-6.6,6.9-10.6c-2-4.6-4.4-9.1-7-13.3L-405.1-114.9z
					"/>
				<path class="st41" d="M-411.5-121.8l3.1,3.9l17.2-15.7c-7.3-6.6-12.9-8.5-17-5.7c-0.5,0.3-0.9,0.6-1.4,1h-0.1
					c-2.4,2.1-3.8,4.8-4.2,8C-414.1-126.9-413.3-124.1-411.5-121.8z"/>
			</g>
		</g>
	</g>
</g>
<g id="handLeft_FL_FL_FL_FL_FL_FL_FL_FL_FL_FL_FL_FL_FL_FL_FL_FL_FL_FL_FL_FL_FL_4_" transform="matrix( 0.965911865234375, -0.258819580078125, 0.258819580078125, 0.965911865234375, 422.3,310.3) ">
	<g transform="matrix( 1, 0, 0, 1, 0,0) ">
		<g>
			<g>
				<path class="st25" d="M-293.5-299.5l-0.8,0.8v-0.1c-1,0.9-2,1.9-3,2.9l-0.2,0.3c-0.8,0.8-0.8,2,0.2,3.4c1.4,2.2,2.9,4.1,4.7,5.7
					c4.8,4.8,11.2,2.8,19.2-5.9l0.6-0.6c0.7-0.8,0.7-1.6-0.2-2.4l-10.1-10C-286.2-304.7-289.7-302.8-293.5-299.5 M-278.5-292.2
					c-1-0.7-2-1.7-3.1-3c-1.2-1.3-2-2.6-2.6-3.7s-0.7-1.8-0.4-2.1c0.2-0.3,0.9-0.1,1.9,0.6c0.9,0.7,2,1.7,3.1,3s2,2.5,2.5,3.6
					c0.6,1.1,0.8,1.9,0.5,2.2C-276.8-291.3-277.5-291.5-278.5-292.2z"/>
				<path class="st27" d="M-277.1-293.9c-0.6-1.1-1.4-2.3-2.5-3.6c-1.2-1.3-2.2-2.3-3.1-3c-1-0.7-1.7-0.9-1.9-0.6
					c-0.3,0.3-0.2,1,0.4,2.1c0.5,1.1,1.4,2.4,2.6,3.7c1.1,1.3,2.2,2.3,3.1,3c1,0.7,1.7,0.9,2,0.6
					C-276.3-292-276.5-292.7-277.1-293.9 M-294.3-298.7l0.8-0.8c3.8-3.2,7.3-5.2,10.4-5.8C-291.1-306-294.8-303.8-294.3-298.7
					L-294.3-298.7z"/>
			</g>
		</g>
	</g>
</g>
<g>
	<path class="st25" d="M7.4,42.1c2.6,9,8.3,17.4,15.6,21c7.7,3.8,22.4,3.4,28.8-0.3c6.4-3.8,15.6-12.6,19-22
		c0.1-4.7-0.4-10.3-1.3-16.7c-0.7-4.6-3.2-6.8-7.6-6.8C45.5,0.2,30.4-1.9,16.5,10.9c-4.6,4.2-7.2,8.5-7.8,13
		C7.7,30,7.3,36.1,7.4,42.1z"/>
	<g transform="matrix( 1, 0, 0, 1, 0,0) ">
		<g>
			<g>
				<path class="st29" d="M59.9,26.7c3.7,0,6.9-1.3,9.5-3.9c2.6-2.6,3.9-5.7,3.9-9.4S72,6.5,69.4,3.9S63.7,0,60,0
					c-3.7,0-6.9,1.3-9.5,3.9c-2.6,2.6-3.9,5.7-3.9,9.4s1.3,6.9,3.9,9.5C53.1,25.4,56.2,26.7,59.9,26.7z"/>
			</g>
		</g>
	</g>
	<g transform="matrix( 1, 0, 0, 1, 0,0) ">
		<g>
			<g>
				<path class="st30" d="M50,36.7c1.1,1.2,1.6,2.5,1.6,4.1c0,0.4,0,0.8-0.1,1.2l3.1-7.2l-8,0.3C48,35.2,49.1,35.7,50,36.7
					 M13.4,34.7l3.1,7.2c0-0.4-0.1-0.8-0.1-1.2c0-1.6,0.6-2.9,1.7-4c0.9-1,2-1.5,3.4-1.6L13.4,34.7z"/>
				<path class="st31" d="M46.2,35c-1.6,0-2.9,0.5-4,1.6c-1,1.1-1.5,2.5-1.5,4c0,1.6,0.5,2.9,1.5,4c1.1,1.2,2.4,1.7,4,1.7
					s2.8-0.6,3.8-1.7c0.8-0.8,1.3-1.7,1.6-2.8c0.1-0.4,0.1-0.8,0.1-1.2c0-1.6-0.5-2.9-1.6-4.1c-0.9-1-2-1.6-3.4-1.7
					C46.5,35,46.3,35,46.2,35 M47.9,40.6V41c-0.1,0.9-0.4,1.6-1,2.2c-0.6,0.7-1.4,1-2.3,1c-0.9,0-1.7-0.4-2.3-1.1
					c-0.5-0.6-0.8-1.3-0.9-2.2v-0.4c0.1-0.9,0.4-1.7,0.9-2.3c0.7-0.6,1.4-1,2.3-1c0.9,0,1.7,0.3,2.2,1
					C47.5,38.9,47.8,39.7,47.9,40.6 M18,36.6c-1.1,1.1-1.7,2.5-1.7,4c0,0.4,0,0.8,0.1,1.2c0.2,1.1,0.8,2,1.6,2.8
					c1,1.2,2.3,1.7,3.8,1.7c1.6,0,2.9-0.6,4-1.7c1-1.1,1.5-2.4,1.5-4s-0.5-2.9-1.5-4.1c-1.1-1.1-2.4-1.7-4-1.7c-0.2,0-0.3,0-0.5,0
					C20.1,35.1,18.9,35.6,18,36.6 M21.1,38.2c0.6-0.6,1.4-1,2.3-1c0.9,0,1.7,0.3,2.3,1c0.5,0.7,0.8,1.4,0.9,2.3v0.4
					c-0.1,0.9-0.4,1.6-0.9,2.2c-0.7,0.7-1.4,1-2.3,1c-0.9,0-1.7-0.4-2.2-1.1c-0.6-0.6-0.9-1.3-1-2.2v-0.4
					C20.2,39.6,20.5,38.9,21.1,38.2z"/>
				<path class="st32" d="M46.9,38.3c-0.6-0.7-1.3-1-2.2-1c-0.9,0-1.7,0.3-2.3,1c-0.6,0.6-0.9,1.4-0.9,2.3V41c0,0.9,0.3,1.6,0.9,2.2
					c0.6,0.7,1.4,1.1,2.3,1.1s1.7-0.3,2.3-1c0.6-0.6,0.9-1.3,1-2.2v-0.4C47.8,39.7,47.5,38.9,46.9,38.3 M21.1,43.1
					c0.6,0.7,1.3,1.1,2.2,1.1s1.7-0.3,2.3-1c0.6-0.6,0.9-1.3,0.9-2.2v-0.4c0-0.9-0.3-1.7-0.9-2.3c-0.6-0.7-1.4-1-2.3-1
					c-0.9,0-1.7,0.3-2.3,1c-0.6,0.6-0.9,1.4-1,2.3V41C20.2,41.8,20.5,42.5,21.1,43.1z"/>
			</g>
		</g>
	</g>
	<g transform="matrix( 0.9659271240234375, -0.2588043212890625, 0.2588043212890625, 0.9659271240234375, 5.45,2.15) ">
		<g>
			<g>
				<path class="st22" d="M12.1,34.5c0.4-0.2,0.6-0.6,0.8-0.9c0.1-0.4,0.1-0.8-0.1-1.2c-0.1-0.3-0.4-0.5-0.9-0.7
					C8,30.2,4.3,30.1,0.7,31.2c1.1,0.2,2.4,0.6,3.8,1.1C9.3,33.9,11.8,34.7,12.1,34.5z"/>
			</g>
		</g>
	</g>
	<g transform="matrix( 0.9659271240234375, 0.2588043212890625, -0.2588043212890625, 0.9659271240234375, -5.6,2.8) ">
		<g>
			<g>
				<path class="st22" d="M52.2,16.1c-0.4,0.2-0.6,0.4-0.7,0.8c-0.2,0.3-0.2,0.6,0,1.1c0.2,0.4,0.5,0.6,0.9,0.8
					c0.3,0.1,2.7-0.8,7.3-2.9c1.4-0.7,2.6-1.2,3.6-1.6C59.7,13.7,56,14.2,52.2,16.1z"/>
			</g>
		</g>
	</g>
	<g transform="matrix( 1, 0, 0, 1, 0,0) ">
		<g>
			<g>
				<path class="st33" d="M52.4,52.7c1.1,0,2-0.3,2.7-1c0.7-0.6,1.1-1.4,1.1-2.2c0-1-0.3-1.8-1-2.4c-0.7-0.6-1.6-0.9-2.7-0.9
					c-1,0-1.9,0.3-2.6,0.9c-0.8,0.6-1.2,1.4-1.2,2.4c0,0.9,0.4,1.6,1.2,2.3C50.5,52.4,51.4,52.7,52.4,52.7z"/>
			</g>
		</g>
	</g>
	<g transform="matrix( 1, 0, 0, 1, 0,0) ">
		<g>
			<g>
				<path class="st33" d="M15.5,52.6c1.1,0,2-0.3,2.7-1c0.7-0.6,1.1-1.4,1.1-2.2c0-1-0.3-1.8-1-2.4c-0.7-0.6-1.6-0.9-2.7-0.9
					c-1,0-1.9,0.3-2.6,0.9c-0.8,0.6-1.2,1.4-1.2,2.4c0,0.9,0.4,1.6,1.2,2.3C13.7,52.3,14.5,52.6,15.5,52.6z"/>
			</g>
		</g>
	</g>
	<g>
		<g>
			<path class="st35" d="M6.4,24.2c-0.3,1.6-0.5,3.2-0.6,4.9c-0.1,0.8-0.1,1.6-0.2,2.4c0.3-1.6,0.4-3.2,0.5-4.7
				C8.5,14.5,15.2,6.9,26.3,4c3.4-0.9,6.1-1.1,8.3-0.4c3.3-0.9,6.5-1.3,9.6-1.2c0.6,0,1.1,0,1.7,0.1c10.5,1.7,18.6,7.6,24.3,17.8
				c1.8,3.2,3.2,6.4,4.1,9.7c0.9,2.7,1.4,5.5,1.6,8.3c0-0.5,0-0.9,0-1.3c-0.2-3.3-0.8-6.5-1.7-9.5c-0.8-3.4-2.2-6.6-4-9.6
				C65.6,9.6,59.4,4.2,51.6,1.6C49.9,0.9,48,0.5,46,0.2C45.6,0.1,45.1,0,44.6,0c-0.3,0-0.5,0-0.8,0.1c-3-0.2-6,0.2-9.1,1.1
				c-2.2-0.6-5-0.5-8.3,0.4C15.4,4.5,8.7,12.1,6.4,24.2z"/>
			<path class="st22" d="M32.6,14.8c0.1,0,0.1,0.1,0.1,0.2c7.2,8.7,15.1,14,23.5,15.8l-3,11.9c6.1,2.7,8.6,9.1,7.5,19.3
				c9.4-1.2,14.5-8.8,15.1-23c0-0.3,0-0.6,0-0.8c-0.1-2.9-0.7-5.6-1.6-8.3c-0.9-3.3-2.3-6.5-4.1-9.7c-5.7-10.1-13.8-16-24.3-17.8
				c-0.6-0.1-1.1-0.1-1.7-0.1c-3.2-0.1-6.4,0.3-9.6,1.2c-2.2-0.7-5-0.6-8.3,0.4C15.1,6.9,8.4,14.5,6,26.7c-0.1,1.5-0.3,3.1-0.5,4.7
				c0,0.3,0,0.6-0.1,0.9l0.7,12.4c-0.2,6.2,0.7,9.9,2.6,11C11,50,11.5,44.4,10.3,39c-1.3-5.5,0-8.9,3.8-10.3L35,22.5
				c-0.4-1.2-0.9-2.3-1.4-3.5C33.5,17.6,33.1,16.2,32.6,14.8z"/>
			<path class="st34" d="M53.2,42.9v-0.2l3-11.9C47.7,29,39.9,23.7,32.7,15c0-0.1,0-0.2-0.1-0.2c0.5,1.4,0.9,2.8,1.3,4.2
				c0.5,1.2,1,2.3,1.4,3.5C39.7,32.5,45.7,39.3,53.2,42.9z"/>
		</g>
	</g>
	<g transform="matrix( 0.75213623046875, 0, 0, 0.75213623046875, -0.05,4) ">
		<g>
			<g id="Symbol_16_0_Layer0_2_MEMBER_2_FILL_1_">
				<path class="st31" d="M41.7,69.9c0.9,0.2,1.9,0.3,3,0.2c2.4-0.2,4.5-1.2,6.2-3.2c0.4-0.4,0.8-0.9,1-1.4l-10.5,0.8L41.7,69.9z"/>
				<path class="st32" d="M38.1,67.9L38.1,67.9c1.2,1,2.3,1.6,3.6,2l-0.3-3.6l10.5-0.8c0.2-0.4,0.4-0.8,0.6-1.2
					c0.2-0.5,0.4-1,0.4-1.5c0.1-0.4,0.1-0.7-0.1-0.9c-0.1-0.3-0.3-0.6-0.7-0.7c-0.3-0.2-0.5-0.3-0.8-0.2l-14.5,1.1
					c-0.3,0-0.6,0.1-0.9,0.4c-0.2,0.2-0.4,0.4-0.5,0.8c-0.1,0.3-0.1,0.6,0,0.9c0.2,0.5,0.4,0.9,0.7,1.4
					C36.6,66.4,37.3,67.2,38.1,67.9z"/>
			</g>
		</g>
	</g>
</g>
<path class="st36" d="M35.5,128l-0.1,1.3h-30l0.1-0.8L35.5,128z"/>
</svg>
